<svg width="392" height="253" viewBox="0 0 392 253" fill="none" xmlns="http://www.w3.org/2000/svg">
<path d="M0 187.874H146.588L155.294 180.662C159.049 173.576 160.389 169.277 161.882 161.087C163.052 150.293 163.078 144.421 161.882 134.301C160.894 129.658 160.181 127.609 158.824 124.256C162.181 147.904 144.644 167.466 144 174.738C143.356 182.01 154.118 188.647 155.294 191.737C156.471 194.828 150.849 202.852 151.765 210.024C155.098 218.762 156.471 219.039 160.706 222.645C162.788 223.877 163.972 224.084 166.118 223.933C167.151 222.301 167.164 221.507 166.118 220.327C164.076 217.59 163.294 216.796 163.059 217.751C162.588 218.489 162.58 218.995 163.765 220.327C165.021 221.884 166.597 221.327 168.941 221.1C169.3 215.649 170.567 215.978 172.471 215.433C175.935 220.711 176.185 224.713 176.941 231.66L168.941 215.433L151.765 167.784L155.294 166.239C155.294 166.239 168.941 207.449 170.824 210.024C172.706 212.6 173.634 212.808 173.882 209.252C172.747 198.35 165.412 196.374 160.706 197.146C156 197.919 156.175 204.7 150.588 213.63C144.154 216.8 137.661 213.796 124.235 205.388C114.32 199.522 109.423 195.888 109.176 184.268C115.51 163.338 126.353 148.467 130.118 139.194C131.706 135.282 143.059 111.635 143.059 111.635L155.294 99.5296L169.647 91.03L176.471 85.3636V79.6972L171.294 72.743L168.235 57.2892V48.532C170.363 46.0816 171.217 46.4046 172.235 49.8198C172.2 45.6894 171.716 43.805 169.647 41.5778C165.679 38.7247 165.412 49.5623 166.824 33.0782C168.235 16.5941 192.492 4.63537 197.882 15.0487C206.642 10.2647 211.285 9.97907 218.353 20.2C225.411 36.2159 231.589 45.4241 218.353 59.3497C214.994 50.5639 213.786 51.4344 212.471 60.1224C208.926 46.3363 207.564 37.299 198.588 34.8811C194.307 44.9971 190.09 48.4632 180.706 52.3955C188.661 43.7671 191.911 39.4292 192.471 33.8509C183.602 43.2374 179.043 48.8329 173.176 60.6375L169.647 54.1984L166.824 62.1829C159.992 54.236 158.813 47.3982 164.235 28.442C170.292 6.90127 192.37 3.72956 193.647 6.034C195.765 6.8067 193.29 3.51887 191.529 2.17055C194.46 1.39027 196.023 1.86739 198.588 5.26131C201.293 1.54681 203.064 0.311343 207.059 0.88273C204.593 2.55305 203.682 3.74512 202.353 6.034C214.041 0.774957 224.706 18.3971 226.588 24.8362C228.471 31.2752 230.787 44.2507 228.706 51.3652C226.625 58.4797 223.34 57.3222 223.294 57.2892C223.248 57.2562 222.696 67.1589 219.294 73.5157L218.353 71.4552C217.089 74.903 215.801 76.3687 212.471 78.1518L213.882 69.6522C213.882 69.6522 208.147 84.9658 199.059 90.5149C194.834 92.2613 192.46 92.4011 188.235 90.5149C184.27 88.7739 180.235 82.2729 180.235 82.2729C180.235 82.2729 176.839 88.3724 173.176 91.03C169.514 93.6877 198.374 112.356 215.529 89.4846C215.529 89.4846 243.059 104.166 243.765 105.454C244.471 106.741 244.706 108.029 240 111.378C235.294 114.726 233.19 128.334 234.118 142.285L237.176 162.375V176.284C230.745 178.773 216.847 186.741 212.706 198.692C212.26 199.979 206.118 193.798 197.176 205.646H160.706L149.176 251.75H208.706L205.647 224.963C209.137 216.73 212.616 214.84 222.353 217.751C223.086 220.338 220.915 221.67 214.588 223.933C212.262 224.844 211.691 227.935 209.176 230.887C206.523 229.317 206.799 227.338 209.176 222.645L201.647 229.857C199.56 230.224 199.635 228.984 200 226.509L203.765 220.327L197.176 227.796C194.268 225.266 195.103 222.691 199.529 216.721C197.508 218.431 196.374 219.39 194.353 221.1C192.728 218.983 193.093 217.003 195.529 212.343C199.153 207.195 201.549 204.695 207.529 202.04C216.106 204.059 220.245 206.671 225.176 216.721C219.948 215.154 217.071 213.981 212.706 207.706C211.006 204.65 211.281 202.956 214.588 199.979C218 197.832 221.053 197.161 230.118 197.661L262.824 198.692C262.824 198.692 273.882 199.722 273.882 184.526C273.882 169.329 255.059 110.347 246.353 111.378C237.647 112.408 253.412 162.89 255.059 173.708C256.706 184.526 252.603 189.616 244.235 195.601C237.582 198.573 234.147 200.693 230.118 207.706C228.75 210.319 228.91 211.529 231.294 213.115C242.703 208.125 249.246 205.987 261.412 204.358L326.353 203.585H392" stroke="black" stroke-width="0.75"/>
</svg>
