<svg width="278" height="230" viewBox="0 0 278 230" fill="none" xmlns="http://www.w3.org/2000/svg">
<path d="M0.714238 110.835C0.513593 112.212 0.35446 114.246 0.714238 116.64C1.19855 119.905 2.35399 121.898 3.41257 124.105C4.61644 126.623 7.64687 132.968 7.97206 140.067C8.02741 141.222 7.90287 140.157 7.34937 148.985C7.01726 154.25 6.90656 157.045 7.97206 160.387C8.42178 161.812 8.9061 164.497 9.84013 164.532C10.5389 164.559 11.0302 163.106 11.6875 161.736C12.3724 160.311 13.9983 158.422 17.2225 154.7C21.3945 149.891 26.7912 143.664 27.5799 144.232C27.7391 144.349 27.7598 144.778 27.6906 145.062C27.5453 145.664 26.9296 145.989 26.805 146.058C25.1653 146.999 18.8692 155.807 15.3406 161.121C12.0541 166.081 11.3138 167.79 10.8018 169.319C10.3936 170.544 9.61873 172.848 9.58414 175.463C9.51495 180.853 12.6284 184.797 15.1192 188.035C15.1192 188.035 18.4264 192.317 23.5947 195.68C25.0269 196.607 25.9679 197.223 27.4139 197.783C28.7077 198.288 29.3927 198.358 30.8456 199.056C32.1325 199.672 32.9005 200.046 33.5024 200.772C34.4157 201.879 34.4434 203.194 34.4434 205.034C34.4503 209.767 34.3188 213.102 34.4434 213.122C34.6579 213.15 35.2736 208.694 35.2736 208.694C35.5711 206.549 37.2386 194.698 39.3696 185.378C40.6357 179.843 42.0817 175.871 44.96 167.936C46.0116 165.03 46.9041 162.823 48.8483 160.539C50.6887 158.374 51.5467 158.402 52.3769 156.7C54.0582 153.247 52.4599 149.186 51.7196 147.304C50.5019 144.225 49.7132 144.488 48.2325 141.492C45.3197 135.597 47.7897 133.335 45.0707 128.644C42.8151 124.742 40.5942 125.433 39.3419 121.683C38.5255 119.241 38.6569 116.529 38.8022 113.492C38.9406 110.579 39.3281 109.423 38.7261 107.389C38.221 105.694 37.7021 105.646 36.3322 103.141C35.502 101.619 33.8069 98.5193 33.5509 95.0322C33.3779 92.6383 33.9591 91.0816 34.4019 89.3173C35.4466 85.1868 35.1975 81.9004 34.7132 75.3344C34.3811 70.851 33.8069 63.1297 29.6141 54.3981C24.0652 42.8299 14.3028 33.9323 10.0685 32.9222C8.02741 32.4379 6.74743 31.6215 4.19439 29.9886C3.91764 29.8087 3.35722 29.442 3.03895 28.7502C2.57539 27.7677 2.87982 26.7229 3.03895 26.204C4.73406 20.6552 7.2871 16.1579 7.2871 16.1579C8.97528 13.1829 9.79862 12.0205 11.2239 11.6746C12.2271 11.4393 13.092 11.7091 13.4656 11.8268C34.8447 18.8009 45.6795 26.8129 45.6795 26.8129C47.6099 28.2382 49.4641 29.7257 49.2358 30.1339C48.9936 30.5629 46.6066 29.6427 45.6795 29.2829C32.001 24.0108 22.3216 15.4176 16.4753 13.9093C16.1362 13.8194 15.0707 13.5703 14.2474 12.6709C12.7599 11.0588 13.002 8.37429 13.4102 7.0182C14.5726 3.24054 19.2774 1.3102 22.889 1.23409C25.1584 1.18566 26.7358 1.87754 28.68 2.6732C36.2838 5.77282 32.6376 3.53805 43.0504 7.72392C54.2934 12.2488 59.9115 14.5113 60.1052 14.6289C61.8003 15.6667 64.4502 17.4241 66.2007 16.4416C67.4115 15.7636 67.702 14.0408 67.9996 12.1589C68.6638 7.92457 67.6121 4.71424 67.875 4.64506C68.2071 4.56203 69.8192 9.62659 70.1098 10.5468C72.0401 16.6353 72.6144 19.2783 73.6522 19.306C74.095 19.3129 74.2887 18.8355 75.036 17.853C75.4165 17.3549 75.8732 16.8083 76.4612 16.2617C77.7827 15.0233 81.422 11.9582 83.0964 12.8438C83.9128 13.2797 83.8574 14.4352 83.9059 18.5588C83.9958 26.5707 84.0373 30.5767 84.4179 32.1058C84.8745 33.9531 85.3934 35.0878 84.7776 35.7658C84.3002 36.2847 83.387 36.2501 78.1909 34.7626C73.3063 33.3581 72.7528 33.0052 72.2961 32.3548C71.6042 31.3585 71.4935 29.8226 71.2791 26.7437C71.0992 24.1837 71.3552 24.2806 71.113 23.4711C70.8086 22.4402 69.8884 21.3124 64.8999 18.0675C61.7311 16.0057 59.6624 14.6566 58.3824 15.3969C57.0817 16.1441 57.6075 18.4481 57.6352 22.8484C57.6905 32.3064 55.3312 35.8627 57.3861 37.4402C59.0397 38.7132 61.9387 37.4402 64.6509 36.257C66.0692 35.6344 73.756 32.2787 73.5969 27.0066C73.5277 24.7995 72.1301 22.8277 71.8602 22.9107C71.6043 22.9868 72.2685 24.9656 71.5697 25.4222C70.94 25.8304 69.584 24.7649 68.9613 24.2806C68.9613 24.2806 62.5752 19.3267 55.6495 16.5523C54.923 16.2617 53.989 15.9227 53.3525 16.3586C52.453 16.9674 52.8681 18.621 52.7644 21.8521C52.7229 23.1874 52.5084 24.5089 52.3907 25.8373C51.4913 35.9249 51.0416 38.3258 52.3907 39.1906C53.1311 39.668 53.5946 39.156 55.2067 39.2598C58.0503 39.4328 60.2574 41.2386 62.3192 43.3211C71.9433 53.0144 76.9802 62.8806 76.9802 62.8875C81.4635 71.6605 83.3109 78.2611 84.6669 77.9566C85.172 77.839 85.3796 76.815 85.5733 74.1997C86.2998 64.2159 84.9714 57.1172 84.9714 57.1172C83.5599 49.6242 83.0825 51.2086 81.7195 43.93C81.7195 43.93 79.9345 34.4443 82.2592 25.4776C82.529 24.4328 83.0341 22.7446 84.4732 21.9905C86.4036 20.9734 88.8943 22.2326 89.8076 22.6962C99.2033 27.4563 104.206 48.96 104.206 48.96C107.105 61.4346 107.893 70.7057 108.917 82.3224C108.938 82.5438 108.959 82.7583 108.973 82.9797C112.114 118.618 111.969 114.052 112.301 120.127C112.993 132.622 113.456 148.791 112.84 167.783C118.431 168.766 122.907 169.091 126 169.209C129.881 169.354 133.126 169.209 134.863 171.423C135.838 172.668 135.928 174.128 135.949 175.235C136.094 181.801 134.268 187.53 133.694 189.522C131.459 197.285 134.178 197.036 132.261 207.871C130.836 215.931 130.11 220.083 126.47 223.59C120.569 229.278 111.685 228.786 110.529 228.703C107.485 228.489 108.094 227.852 102.255 226.974C98.7536 226.448 94.6784 225.867 89.5447 226.448C86.4935 226.794 86.4312 227.174 84.5839 227.202C79.9414 227.271 76.143 224.96 73.6038 222.912" stroke="#241C15" stroke-width="0.75" stroke-miterlimit="10"/>
<path d="M110.336 71.6813L109.049 83.9276" stroke="#241C15" stroke-width="0.75" stroke-miterlimit="10"/>
<path d="M95.1493 165.459C94.3122 160.076 93.6134 155.8 93.1429 152.984C92.3265 148.058 91.8214 145.2 93.0875 144.453C93.9662 143.934 95.3984 144.619 96.1525 145.367C97.4879 146.702 97.6401 149.213 96.6092 149.905C95.9381 150.355 94.755 150.037 94.0423 149.393C92.8938 148.349 93.0322 146.494 93.0737 145.712C93.3089 141.271 91.766 136.912 91.2195 132.498C90.832 129.377 90.7836 126.222 90.3615 123.109C90.0986 121.185 89.7181 118.736 90.9911 117.802C91.5792 117.373 92.2849 117.435 92.5617 117.463C94.326 117.622 96.2563 119.559 95.7582 121.344C95.3223 122.922 93.1498 123.808 91.8214 123.282C90.4722 122.756 90.1401 120.832 89.7388 118.148C88.3758 108.987 88.5903 106.511 87.8016 100.512C87.6701 99.4949 87.5663 97.2463 87.3726 92.749C87.255 90.0853 87.2065 88.1273 88.3136 87.4977C89.0885 87.0549 90.0363 87.4977 90.1678 87.553C91.6484 88.238 92.2158 90.4312 91.5377 91.9188C91.005 93.0881 89.5589 94.1467 88.5419 93.8284C87.0751 93.3717 86.8744 90.1683 86.916 80.9594C86.9644 69.9931 87.2827 66.9281 87.255 58.6117C87.2411 55.0969 87.1789 53.817 87.172 47.9083C87.1512 37.115 87.3588 38.9346 87.2273 37.0389C87.2273 37.0389 86.7499 30.0786 87.7877 22.3572C87.8223 22.0943 87.9192 21.4716 88.3966 21.1118C88.9362 20.7036 89.6904 20.842 90.1055 20.9388C95.1562 22.0874 97.8131 24.163 97.8131 24.163C104.711 29.5735 107.942 36.52 107.942 36.52C110.71 42.4701 111.035 47.763 111.222 50.9042C111.471 55.0278 110.336 71.6813 110.336 71.6813" stroke="#241C15" stroke-width="0.75" stroke-miterlimit="10"/>
<path d="M52.3911 156.699C52.8062 156.859 53.4289 157.08 54.1969 157.308C57.1097 158.166 59.3999 158.277 60.5899 158.353C62.714 158.491 66.4363 158.741 70.0271 159.841C73.7425 160.975 73.6249 161.895 77.3818 163.175C80.004 164.068 81.4916 164.109 86.5977 164.642C90.9772 165.099 95.343 165.749 99.7226 166.254C101.48 166.455 111.305 167.59 112.827 167.763" stroke="#241C15" stroke-width="0.75" stroke-miterlimit="10"/>
<path d="M133.853 193.023C134.538 197.458 135.859 200.426 137.229 200.447C138.198 200.461 138.066 197.742 139.99 196.766C141.961 195.763 143.573 197.776 146.618 197.5C149.019 197.285 149.98 195.853 152.63 194.061C154.159 193.03 155.605 192.311 162.51 190.069C178.852 184.769 181.004 185.468 185.896 182.091C188.912 180.009 187.501 180.154 193.811 174.356C199.014 169.575 203.283 166.441 210.257 161.342C219.68 154.458 226.101 150.383 225.54 149.31C225.257 148.771 223.278 149.123 222.904 149.186C221.099 149.504 219.867 150.41 219.528 150.659C209.724 157.848 210.174 156.07 204.798 160.906C203.297 162.255 201.276 164.186 198.107 164.836C197.582 164.947 195.202 165.39 194.856 164.649C194.281 163.438 199.533 159.854 200.688 159.066C205.767 155.592 208.306 153.856 211.122 152.991C212.118 152.687 213.91 152.209 214.249 150.964C214.484 150.113 213.972 149.13 213.453 148.632C212.07 147.304 209.129 147.933 203.262 150.348C197.222 152.839 191.618 155.765 185.46 158.021C185.46 158.021 182.367 159.156 177.545 158.574C176.832 158.491 175.884 158.332 175.518 157.654C174.957 156.616 176.05 154.859 176.929 153.911C177.96 152.797 178.548 152.956 178.956 152.195C179.717 150.777 178.839 148.086 177.116 146.979C174.618 145.366 170.723 147.331 167.416 149.006C164.51 150.473 164.87 150.895 162.012 152.313C157.757 154.423 156.449 153.738 153.37 155.648C151.807 156.616 148.527 158.644 148.479 161.065C148.41 164.525 154.955 168.33 160.974 168.98C172.425 170.212 185.128 160.325 185.757 153.261C185.847 152.237 185.916 148.722 187.736 147.947C188.587 147.587 189.494 147.968 189.715 148.051C196.966 150.839 262.805 143.498 267.911 144.301C268.105 144.329 268.624 144.439 269.163 144.197C270.623 143.54 269.925 141.326 271.35 140.032C272.664 138.835 274.104 139.963 275.93 138.572C276.795 137.915 277.577 136.718 277.494 135.971C277.127 132.747 259.754 132.214 256.357 132.117C219.064 131.1 196.578 131.079 193.672 131.079C180.99 131.065 173.013 130.948 160.663 131.909C154.049 132.428 147.489 134.67 140.882 134.096C139.872 134.006 136.385 133.639 135.361 135.348C135.361 135.348 134.842 136.213 135.257 137.638C136.06 140.385 142.46 139.977 144.597 139.901C155.232 139.506 165.859 141.181 176.493 141.084C188.504 140.973 185.225 141.644 201.401 141.706C208.887 141.734 216.269 141.547 231.041 141.174C235.697 141.056 241.488 141.015 249.341 140.461C255.527 140.025 265.746 139.306 265.766 138.143C265.766 137.88 265.282 137.119 255.769 135.908C242.727 134.255 234.23 134.511 219.445 134.483C201.373 134.449 200.045 134.047 188.573 134.393C178.742 134.691 178.894 135.009 172.024 135.016C164.911 135.016 157.805 135.694 150.693 135.694C150.693 135.694 147.884 135.569 143.996 136.801C142.681 137.216 141.65 137.514 141.228 138.406C140.564 139.818 141.816 141.589 141.899 141.706C142.882 143.069 144.521 143.63 149.62 144.1C154.394 144.543 159.113 145.747 163.901 145.726C164.24 145.726 165.091 145.712 165.437 146.231C166.108 147.228 164.434 149.449 164.074 149.919C160.552 154.589 155.647 152.804 150.575 157.205C147.33 160.021 148.41 161.55 144.791 164.026C142.37 165.68 140.501 165.95 138.723 168.219C137.492 169.797 137.084 171.333 136.668 172.952C136.226 174.702 134.524 181.856 138.433 189.19C139.132 190.505 140.335 192.421 142.321 194.4" stroke="#241C15" stroke-width="0.75" stroke-miterlimit="10"/>
</svg>
